<svg xmlns="http://www.w3.org/2000/svg" viewBox="-5 -10 110 135"><path d="M71.773 36.391h1.563V26.243c0-4.086-1.594-7.93-4.485-10.82a15.206 15.206 0 0 0-10.82-4.484c-2.906 0-5.625.812-7.937 2.226a15.166 15.166 0 0 0-7.938-2.226c-8.445 0-15.312 6.867-15.312 15.305v10.148h1.563V26.244c0-7.579 6.172-13.742 13.75-13.742 2.359 0 4.578.593 6.515 1.648a15.257 15.257 0 0 0-5.953 12.094v10.148h1.563V26.244c0-4.625 2.297-8.727 5.812-11.211 3.508 2.492 5.805 6.586 5.805 11.211v10.148h1.562V26.244c0-4.914-2.328-9.297-5.945-12.094a13.58 13.58 0 0 1 6.516-1.648c3.664 0 7.117 1.43 9.718 4.03a13.652 13.652 0 0 1 4.024 9.712zm2.922 1.562h-6.281v50.406l6.281-4.32zm-17.234 6.625h2.07a.78.78 0 0 1 .782.781c0 .43-.352.782-.782.782h-5.703a.784.784 0 0 1-.781-.782c0-.437.352-.781.781-.781h2.07v-6.625h-27.49v6.625h2.07c.43 0 .781.344.781.781 0 .43-.352.782-.781.782h-5.695a.784.784 0 0 1-.782-.782.78.78 0 0 1 .782-.781h2.062v-6.625h-9.383v51.109h49.391V37.953h-9.39zm-.813 37.805H27.656a.779.779 0 0 1-.78-.781c0-.43.35-.781.78-.781h28.992c.43 0 .782.351.782.78a.779.779 0 0 1-.782.782zm19.61-44.43v46.086l6.281 4.32V37.953zm-6.11 51.109h10.656l-5.328-3.664z"/></svg>